<?xml version="1.0" encoding="utf-8"?>
<!-- Generator: Adobe Illustrator 24.0.1, SVG Export Plug-In . SVG Version: 6.00 Build 0)  -->
<svg version="1.1" id="Layer_1" xmlns="http://www.w3.org/2000/svg" xmlns:xlink="http://www.w3.org/1999/xlink" x="0px" y="0px"
	 viewBox="0 0 878 512" style="enable-background:new 0 0 878 512;" xml:space="preserve">
<style type="text/css">
	.st0{clip-path:url(#SVGID_3_);fill:#3D9635;}
	.st1{clip-path:url(#SVGID_3_);}
	.st2{clip-path:url(#SVGID_4_);fill:#FFFFFF;}
</style>
<g id="SAUDI_ARABIA_3_">
	<g>
		<g>
			<defs>
				<rect id="SVGID_1_" x="0.2" width="877.5" height="512"/>
			</defs>
			<clipPath id="SVGID_3_">
				<use xlink:href="#SVGID_1_"  style="overflow:visible;"/>
			</clipPath>
			<rect x="0.2" class="st0" width="877.5" height="512"/>
			<g class="st1">
				<defs>
					<rect id="SVGID_2_" x="0.2" width="877.5" height="512"/>
				</defs>
				<clipPath id="SVGID_4_">
					<use xlink:href="#SVGID_2_"  style="overflow:visible;"/>
				</clipPath>
				<path class="st2" d="M248.6,145.1c-0.9,11.9-2,33.1,8.2,35.2c12.3,1.1,5.5-20.8,9.9-24.8c0.8-1.9,2.4-1.9,2.5,0.5v18.7
					c-0.1,6,3.9,7.8,7,9c3.2-0.2,5.4-0.1,6.6,3.1c0.5,10.7,1,21.5,1.5,32.2c0,0,7.5,2.2,7.9-18.1c0.3-12-2.4-21.9-0.8-24.2
					c0.1-2.3,2.9-2.4,5-1.2c3.2,2.3,4.7,5,9.6,3.9c7.6-2.2,12.1-5.7,12.3-11.7c-0.4-5.5-1-11.1-3.4-16.6c0.3-1-1.5-3.6-1.1-4.6
					c1.4,2.2,3.4,1.9,3.8,0c-1.3-4.3-3.3-8.3-6.5-10.1c-2.7-2.3-6.7-1.8-8.1,3.2c-0.6,5.5,2.1,12.4,6.3,17.9c0.9,2.1,2.1,5.7,1.5,9
					c-2.2,1.1-4.4,0.7-6.2-1.2c0,0-6.1-4.6-6.1-5.5c1.6-10.3,0.4-11.6-0.5-14.4c-0.6-3.9-2.5-5.2-4-7.8c-1.5-1.7-3.5-1.7-4.5,0
					c-2.7,4.6-1.5,14.5,0.5,19c1.4,4.1,3.5,6.6,2.5,6.6c-0.8,2.3-2.6,1.7-3.8-0.9c-1.8-5.5-2.1-13.8-2.1-17.5
					c-0.6-4.6-1.2-14.4-4.2-17c-1.8-2.4-4.6-1.2-5.6,1.1c-0.2,4.5-0.2,9.1,0.3,13.3c2.1,7.4,2.7,13.9,3.8,21.5
					c0.3,10.1-5.8,4.4-5.6-0.7c1.4-6.4,1-16.8-0.2-19.3c-1-2.7-2.2-3.3-4.6-2.8c-1.9-0.2-6.9,5.2-8.2,14.2c0,0-1.2,4.6-1.7,8.8
					c-0.7,4.6-3.8,7.9-5.9-0.7C252.8,156.9,251.7,141.6,248.6,145.1"/>
				<path class="st2" d="M282,194.2c-10.8,5.4-21.4,10.3-32,15.4c0.4-7.3,15.3-20.3,25.4-20.5C281.9,189.3,280.2,191.6,282,194.2"/>
				<path class="st2" d="M322.8,126.5c-0.6,0-1.3,0.4-2,0.6c-2.6,0.7-5.1,3.1-4.3,7.5c3.1,18.8,5.1,33.1,8.2,51.8
					c0.5,2.3-1.4,5.1-3.7,4.9c-4.1-2.8-5.1-8.4-12-8.1c-5,0.1-10.7,5.5-11.4,10.7c-0.8,4.2-1.1,8.7,0,12.3c3.6,4.3,7.8,3.8,11.4,2.9
					c3-1.2,5.5-4.3,6.6-3.6l0,0l0,0c0.7,1.2-0.1,11-14.3,18.5c-8.8,3.9-15.7,4.9-19.4-2.3c-2.3-4.5,0.2-21.5-5.5-17.6
					c-16.9,43.5,39.5,49.6,45.8,1.8c0.4-1.3,1.7-2.7,2.6-2.3c0.4,0.2,0.7,0.7,0.8,1.7c-1.3,43.2-43.6,46.1-50.7,32.6
					c-1.8-3.3-2.3-10.3-2.5-14.6c-0.3-2.7-1-4.2-1.7-4.8c-1.7-1.2-4,2.1-4.5,8c-0.7,4.7-0.5,6-0.5,10.4c2.2,34.3,56.7,19.6,65.6-8.7
					c4.3-14.6-0.1-25.5,1.4-27c0,0,0,0,0.1,0c0,0,0,0,0,0h0c0.1,0,0.1-0.1,0.1-0.1c5.5,5.8,13,0.7,14.7-1.2c0.8-1,2.5-1.6,3.8-0.4
					c4.2,3.1,11.6,1.7,13.1-3.7c0.9-5.2,1.6-10.6,1.8-16.3c-2.8,0.8-5,1.5-5.9,2.5c-0.2,0.2-0.4,0.5-0.4,0.8
					c-0.2,1.4-0.4,3.1-0.7,4.6c0,0.1-0.1,0.3-0.1,0.4c-0.1,0.2-0.3,0.3-0.5,0.4c-1,0.6-2.6,0.2-2.8-1.2c-1.3-5.8-6.6-6.8-9.9,2.4
					c-2.2,1.8-6.2,2.1-6.6-0.4c0.6-6.2-2-7-6.9-4.2c-1.6-12.3-3.2-23.9-4.8-36.2c2.1,0,3.9,1.5,5.9-0.8c-2.1-6.4-6.4-19.5-8.9-20.7
					h0c-0.1-0.1-0.3-0.3-0.4-0.4c0,0-0.1,0-0.2-0.1c0,0-0.1,0-0.1,0c-0.1-0.1-0.3-0.1-0.3-0.2C323.3,126.5,323.1,126.4,322.8,126.5
					 M307.7,193.6c1-0.1,2.3,0.3,3,1.8c0.5,1.3,0,2.7-0.6,3.3l0,0c0,0,0,0,0,0c-0.4,0.7-1.9,0.4-2.9,0.4c-1.3,0-1.9-0.3-2.7-1.3
					c-0.4-1.1,0.7-2.3,1.2-3.2c0,0,0,0,0,0c0,0,0.1-0.2,0.2-0.3C306.3,194.1,306.9,193.7,307.7,193.6"/>
				<path class="st2" d="M360.8,125.5c-1.4,0.1-2.7,0.5-3.8,1c-2.8,2.8-3.4,7-1.3,9.7c2.1,0.9,4.3,3.2,2.8,4.3
					c-6,6.4-21.8,17.3-22.6,19.3l0,0v0.1l0,0l0,0c0.1,0,0.1,0.1,0.1,0.1h0h0l0,0h0c0.8,0.6,10.6,0.6,11.8,0.1V160h0l0,0
					c3.4-1.2,19.5-19.6,19.5-19.6c-0.8-0.7-1.6-1.2-2.4-1.9c-0.9-0.7-0.8-1.5,0-2.3c4-2.3,2.7-7.5,0.7-9.8
					C363.9,125.6,362.2,125.4,360.8,125.5 M360,131.1c1-0.1,2.1,0.9,2.7,2.1c0.6,1.3,0.3,2.7-0.7,3c-1,0.2-2.3-0.7-3-2
					c-0.6-1.4-0.3-2.8,0.7-3C359.9,131.2,359.9,131.1,360,131.1"/>
				<path class="st2" d="M251.1,225c-6,9.6-6.5,23.9-3.2,28.2c1.8,2,4.6,3,6.8,2.3c3.8-1.6,5.4-9.3,4.5-12c-1.3-2-2.3-2.3-3.5-0.6
					c-2.6,5.3-3.8,1.6-4-1.4c-0.4-5.7,0.1-10.9,0.7-15.1C253.1,222,252.4,223.3,251.1,225"/>
				<path class="st2" d="M508.1,209.7c-5.8-12.6-13.8-24.9-16.4-29.6c-2.6-4.8-21.9-32.8-24.8-36.1c-6.3-7.5,10.2,3.2-2.1-11.7
					c-4.6-4-4.9-4.2-8.9-7.5c-1.9-1.4-6.7-3.9-7.5,0.2c-0.5,3.8-0.2,5.8,0.4,8.9c0.5,2,3.5,5.6,5,7.6c19.6,26.3,37,52.9,53.8,86.4
					C510.2,226.6,509.7,211.8,508.1,209.7"/>
				<path class="st2" d="M482.6,251.6c-1.2,1.2,2.8,6.8,8,6.7c8.6-0.9,16.2-5.8,23.2-18.6c1.9-3,5.2-9.3,5.3-14.3
					c0.6-28.9-1.5-51.4-5.8-72.3c-0.3-2-0.1-4.4,0.2-5c0.6-0.7,2.5,0,3.5-1.6c1.5-1.5-3.9-14-7-18.8c-1.1-2.1-1.5-3.6-3.3,0.2
					c-1.9,3.2-3.2,8.7-3,13.7c4.1,28.4,5.4,53.4,8.1,81.8c0.2,2.8-0.2,6.8-2,8.4C503,238.9,493.2,247.6,482.6,251.6"/>
				<path class="st2" d="M599,251.4c-6.2,3.6-6.2,7.8-1.2,7.9c8.6-1,18.8-1.7,25.9-12.4c1.9-3,4.1-11,4.2-15.9
					c0.7-28.9-0.4-57.2-4.7-78.1c-0.3-1.9-1.3-6.6-0.9-7.3c0.6-1.3,3.4,0.2,4.3-1.4c1.5-1.4-7.2-12.8-10.3-17.6
					c-1.1-2.1-1.4-3.6-3.2,0.3c-1.9,3.1-2.6,8.7-1.8,13.6c4.6,31,8,60.9,8.7,88.3c-0.4,2.7-0.5,4.1-1.7,7.3
					c-2.7,3.6-5.7,7.9-8.4,9.9C607,247.8,601,249.8,599,251.4"/>
				<path class="st2" d="M603.6,223.7c-0.1-7.3,0.2-13.5-0.1-18.9c-0.2-5.3-2.7-25.6-3.5-29.9c-0.8-4.4-1.7-10.9-2.9-16.1
					c-0.4-2-1.5-8.6-1.1-9.2c0.5-1.4,2.4,0.1,3.3-1.6c1.5-1.5-4.9-18-8.2-22.7c-1.1-2.2-3.3-1.4-5.8,2c-2.5,2.3-1.6,7.4-0.6,12.3
					c6.2,32.3,10.8,66.1,9.8,96.9C594.3,239,603.7,228.6,603.6,223.7"/>
				<path class="st2" d="M558,183.6c-3.9-0.1-12.1-7.6-14.5-12c-0.9-2.5-0.3-5,0.5-6.4c1.5-0.9,3.7-2,5.3-0.9c0,0,1.7,2.3,1.4,2.6
					c2.1,1,3,0.4,3.3-0.5c0.1-1.4-0.7-2.3-0.7-4c0.9-4.6,6.1-5.2,8-2.3c1.4,1.7,2,5.4,2.2,8c0,1.3-2.1-0.2-3.3,0.1
					c-1.2,0.3-1.5,1.6-1.6,2.9C558.4,174.4,558,179.6,558,183.6"/>
				<path class="st2" d="M486.1,231.7c1.1-9.9-0.4-29.9-0.5-35.7c-0.4-13.7-2.7-40.1-3.7-44.5c-1.2-8.4,3.4,0.9,2.7-4
					c-1.5-8.3-6.1-13.9-11.5-21.6c-1.7-2.4-1.7-3-4.4,0.6c-3,6.7-0.4,11.4,0.4,16.8c3.9,17.2,6.2,33,7.3,48.6
					c1.1,15.6,1.4,35.1,0.4,51.7C479.8,243.6,484.5,238.8,486.1,231.7"/>
				<path class="st2" d="M616.9,215.9c-6.8-11.5-17.2-25-20-29.6c-2.8-4.6-26.2-38.9-29.1-42c-8.6-8.9,3.9-1.4-1.6-8.5
					c-4.7-5.1-6.1-6.7-10.1-9.8c-2-1.2-3.2-3.8-3.9,0.4c-0.3,3.8-0.6,8.1-0.3,11.2c0,1.8,1.8,5,3.4,6.9
					c20.7,25.5,43.4,56.7,61.5,89.4C619.4,232.8,618.5,218,616.9,215.9"/>
				<path class="st2" d="M533.8,351.9L533.8,351.9c-6.1,1.5-5.9,7.9-2,10.6c-64.1,0-162.5-1-183.5-1c-11.8,0-49.2-1.4-49.8-1.4
					c8,11.7,19.6,14,34.7,14.3c28.5,0,160.4-0.3,197.9-0.3c-2.7,4.7,0.3,12.3,2.4,13.7c0,0,0.1,0.1,0.2,0.1c0.1,0.1,0.1,0.1,0.2,0.1
					h0.1c2.5,0.6,3.6-1.2,4.5-2.4c4,0.3,26.7,0.6,28.8-0.1l0,0c1.4,2.1,2.8,4,5.5,3.7c4.7-1,8.4-1.5,8.5-11c0,0-0.5-16.1-11.1-15.1
					c-2.5,0.3-9.5,1-9.5,1c-8.2-0.9-14.2-1-23.4-1.4c0.9-1,2.3-5.4,0.5-7c-0.5-0.4-1.2-0.6-2.2-0.6l0,0h-0.1l0,0h-0.1
					c-0.1,0-0.2-0.1-0.2-0.2c0,0,0,0,0-0.1c-0.5-0.5-0.7-2.3-1-2.8H534l0,0H533.8L533.8,351.9L533.8,351.9 M538.2,374.9
					C538.2,374.9,538.2,374.9,538.2,374.9c9.3,0.4,18.1,0.1,27.5,0.5c1.5,1.3,0.7,4.2-0.2,4.7c0,0.1-0.1,0.1-0.1,0.1h-0.1
					c-0.1,0-0.2,0-0.2,0c-3-0.1-4.8-0.1-7.8-0.2c0-0.2-0.1-0.3-0.1-0.5c-0.7-2.2-5.9-1.9-7.2-0.2h0l0,0.1c0,0,0,0.1-0.1,0.2
					c0,0,0,0.1,0,0.2c0,0.1,0,0.2,0,0.3c-4.1,0.4-7.8-0.1-11.9-0.4C536.6,378.3,536.8,375.7,538.2,374.9"/>
				<path class="st2" d="M371.6,135.3c-6.2,17.8,3.6,37.4,10.4,35.5c4.9,1.9,8-7.5,10.1-17.7c1.4-2.9,2.4-3.2,3.1-1.7
					c-0.2,13.7,1,16.8,4.5,20.8c7.8,6,14.3,0.8,14.8,0.2c0.5-0.4,6.1-6,6.1-6c1.3-1.4,3.1-1.5,5.1-0.2c1.8,1.7,1.6,4.6,5.6,6.5
					c3.3,1.4,10.5,0.4,12.2-2.5c2.2-3.8,2.7-5.1,3.8-6.5c1.6-2.2,4.3-1.2,4.3-0.5c-0.2,1.2-1.8,2.3-0.8,4.5c1.9,1.4,2.4,0.5,3.5,0.2
					c4-1.9,6.9-10.5,6.9-10.5c0.1-3.3-1.6-3-2.9-2.3c-1.5,0.9-1.6,1.2-3.1,2.2c-1.9,0.2-5.7,1.5-7.5-1.3c-1.9-3.5-1.9-8.4-3.4-11.8
					c0-0.2-2.5-5.4-0.2-5.8c1.1,0.2,3.7,0.9,4.1-1.2c1.3-2-2.7-8-5.3-10.8c-2.3-2.5-5.6-2.9-8.6-0.3c-2.1,1.9-1.9,4.3-2.3,6.3
					c-0.5,2.4-0.4,5.4,2.1,8.6c2.2,4.3,6.1,9.8,4.8,17.5c0,0-2.3,3.7-6.3,3.3c-1.6-0.4-4.4-1.1-5.8-11.7c-1-8.2,0.3-19.6-3.2-24.8
					c-1.2-3.3-2.1-6.4-5.2-0.8c-0.9,2.2-4.3,5.4-1.8,12.2c2,4.3,2.9,11.1,1.9,18.9c-1.4,2.3-1.7,3-3.6,5.2c-2.7,2.8-5.5,2-7.7,1
					c-2.1-1.4-3.7-2.1-4.6-6.4c0.1-7,0.5-18.5-0.8-21c-1.8-3.9-5-2.4-6.3-1.3c-6.4,5.8-9.6,15.7-11.5,23.6c-1.8,5.7-3.7,4.1-5,1.7
					C375.8,155.1,375.5,131.4,371.6,135.3"/>
				<path class="st2" d="M392.7,172.2c0,0.1-0.1,0.1-0.2,0.1l0,0.1c-0.4,0.2-1,0.9-2,1.7c-1.9,2.2-2.1,3.6-2,7.7
					c0.1,0.5,3.4,9.8,6.3,16.4c1.9,7,3.7,14.7,2.4,22.2c-4.5,9.8-13.6,18.5-22.3,23.3c-4.5,1.4-8.3,1-9.3,0v-0.1
					c-2.6-1.6-2.7-4.7-2.5-5.3l0,0h0c7.4-5.2,15.9-9.3,22.5-23.2c1.9-5.3,2.5-8.5,0.6-16.8c-0.8-3-1.8-5.5-3.8-7.7c0,0,0,0,0-0.1
					c1.3-0.6,4.5,1.8,5,0.3c-0.8-4-3.4-9.2-6.4-11.8c-2.7-2.4-5.5-2.7-7.9-0.5c-2.7,1.5-3.2,7-2,11.7c1.5,3.5,5.4,4.1,8.2,11.2v0.1
					c0.1,0.4,0.9,5.4-0.5,7.5c-1.1,3.6-15.8,15.1-16.8,15.7l-0.1,0.1c0,0,0,0,0,0.1h0h0l0,0h0l0,0h0c0-0.1,0-0.1,0-0.1
					c0-0.3,0.1-1.1,0-2.3c-0.1-2,0.8-7,0.8-7.9l0,0h-0.1v-0.1h-0.1c-4.8,3.2-6.4,12.8-7.3,15.6c-12.3,8.4-26.1,14.7-34.2,23.4
					c-4.2,6.4,28.8-7.6,32.6-9.2c0,0,0.1,0,0.2,0.1c0.7,0.7,0.7,3.5,2.9,6c3.4,4.7,10.7,7.6,17.8,5.8c11.9-4.3,18.7-12.5,25.7-21.4
					c1-1.4,2.6-2.5,4-1.4c4.8,10.7,18.6,18.3,36.4,19.1c4.1-5,2.2-7.6,0.5-8.5c-0.5-0.4-8.9-3.7-10.2-6.9c-0.8-3,1.2-5.6,5.2-7.7
					c11.4-1.3,22.7-3,33.6-6.4c0.1-3.7,2.2-9.2,3.7-11.5c1-1.6,1.7-1.8,1.9-2.1c0,0,0.1,0,0.1-0.1l0,0c0,0,0,0,0,0v-0.1
					c0,0,0-0.1,0-0.2l-1.9-1.1l-36.5-0.2c-0.4-0.1-0.8-0.4-1-0.5h0c0-0.1,0-0.1,0-0.1h0l0-0.1h-0.1v-0.1l0,0l0,0l0,0v-0.1l0,0l0,0
					v-0.1l0,0l0,0l0,0c0-0.1,0.1-0.1,0.1-0.1c0.2-0.3,0.6-0.5,1.1-0.7c8.8-1.1,24.3-3.7,25.3-18.7c-0.1-7.8-3.3-12.8-12.8-14.2
					c-7,0.6-12,7.3-11.2,14.8c-0.3,1.9,0.7,5.9-1.3,6.3c-13.5,1.3-28.1,9.7-28.6,15.7h0l0,0h-0.1h-0.1l-0.1,0.1c0,0,0,0,0,0h0h-0.1
					h-0.1l-0.1-0.1c-0.9-0.2-2-1.6-1.8-3.7c-0.5-10.4-3.9-22.2-9.2-31.3c-1.9-1.9-2.7-2.6-3.3-2.7h0H392.7L392.7,172.2L392.7,172.2
					L392.7,172.2 M446.1,185.6c0.9-0.1,1.9,0.1,2.9,0.7c1.5,0.8,2.3,2,2.2,3v0.1v0.1h0c0,0.1,0,0.1,0,0.1v0.1
					c-0.1,0-0.1,0.1-0.2,0.2c-0.7,0.7-2.3,0.6-3.8-0.3c-1.4-0.8-2.3-2.2-2.2-3v-0.1c0-0.2,0.1-0.3,0.2-0.3c0-0.1,0-0.1,0.1-0.2l0,0
					c0-0.1,0.1-0.1,0.2-0.2C445.4,185.7,445.8,185.6,446.1,185.6 M412.1,216.4c0.1,0,0.3,0,0.4,0h0c4.1,1.1,10.1,1.2,15.3,1.7
					c4.2,0.3,6.3,3.6,2.4,5c-3.9,1.3-7.7,2.3-7.7,8.1c0.5,2.8,0.4,4.3,0,4.9c0,0.1-0.1,0.2-0.2,0.2c0,0,0,0,0,0.1h0h-0.1v0.1h-0.1
					c0,0-0.1,0.1-0.2,0.1c0,0.1-0.1,0.1-0.1,0.1c-1,0.1-2.3-0.9-3.4-1.3c-2.3-1.8-9.2-5.9-10.1-15
					C408.2,218.4,409.7,216.6,412.1,216.4"/>
				<path class="st2" d="M294.7,135.5c4.2,1.9,12.1,1.1,11.8-5.6c0-0.6-0.1-2.7-0.2-3.2c-0.8-2.1-3.2-1.6-3.7,0.5
					c-0.2,0.6,0.3,1.7-0.3,2.1c-0.4,0.3-1.7,0.1-1.7-1.7c0-0.6-0.4-1.3-0.7-1.6c-0.2-0.2-0.4-0.3-0.9-0.3c-0.6,0.1-0.6,0.2-0.8,0.7
					c-0.2,0.5-0.3,1-0.3,1.5c-0.1,0.7-0.4,0.9-0.9,1c-0.5,0-0.4,0.1-0.9-0.2c-0.2-0.3-0.6-0.4-0.6-0.9c0-0.4-0.1-1.3-0.2-1.7
					c-0.2-0.3-0.6-0.5-1-0.6c-2.3,0-2.5,2.7-2.3,3.7C291.6,129.5,291.5,134.2,294.7,135.5"/>
				<path class="st2" d="M418.1,187.8c4.2,1.9,14.2,0.8,11.8-5.7c0-0.6-0.1-2.7-0.3-3.2c-0.8-2-3.2-1.5-3.7,0.5
					c-0.1,0.7,0.3,1.8-0.3,2.3c-0.4,0.3-1.7,0-1.7-1.8c0-0.6-0.4-1.2-0.7-1.5c-0.3-0.2-0.4-0.3-0.9-0.3c-0.6,0.1-0.6,0.2-0.9,0.7
					c-0.1,0.4-0.3,0.9-0.3,1.5c-0.1,0.7-0.3,0.9-0.8,1c-0.5,0-0.4,0.1-0.8-0.2c-0.3-0.3-0.6-0.4-0.6-0.9c0-0.5-0.1-1.3-0.3-1.6
					c-0.2-0.3-0.6-0.5-1-0.6c-2.3,0-2.4,2.7-2.3,3.7C415.1,181.7,415,186.4,418.1,187.8"/>
				<path class="st2" d="M490.1,166.2c4.2,1.9,12.1,1,11.8-5.7c0-0.5-0.1-2.6-0.2-3.2c-0.9-1.9-3.3-1.5-3.7,0.6
					c-0.2,0.6,0.2,1.7-0.4,2c-0.3,0.4-1.7,0.2-1.6-1.7c0-0.5-0.4-1.2-0.7-1.6c-0.2-0.1-0.4-0.1-0.9-0.1c-0.6,0-0.6,0.1-0.9,0.6
					c-0.2,0.5-0.3,1-0.3,1.6c0,0.6-0.3,0.8-0.8,0.9c-0.5,0-0.4,0.1-0.8-0.2c-0.3-0.2-0.6-0.4-0.6-0.9c0-0.5-0.1-1.3-0.3-1.7
					c-0.3-0.2-0.6-0.3-1-0.4c-2.3,0-2.5,2.7-2.3,3.6C487.1,160.1,487,164.8,490.1,166.2"/>
				<path class="st2" d="M527.4,220.4c-7.3,8.3-4.1,22-2.4,24.9c2.4,4.8,4.4,8,9.1,10.3c4.3,3.3,7.7,1.2,9.5-1
					c4.3-4.5,4.4-15.8,6.4-18.1c1.5-4.2,5-3.5,6.7-1.6c1.7,2.3,3.7,4,6.2,5.3c4,3.5,8.8,4.2,13.6,0.9c3.3-1.7,5.4-4.2,7.2-8.8
					c2.2-5.7,1-36.3,0.5-51.7c-0.2-1.2-4.2-21.2-4.2-21.5c0-0.2-0.6-10.2-1-12.6c-0.1-1-0.3-1.3,0.7-1.2c1.1,1,1.2,1.1,1.9,1.3
					c1.1,0.2,2-1.6,1.4-3.4c-3.3-6.1-6.7-12.3-10.1-18.4c-0.8-0.9-1.8-1.7-3.1,0.1c-1.2,1.1-2.5,3-2.5,5.5c0.3,4.4,1.1,8.9,1.3,13.3
					c1.4,7.4,2.7,15,4,22.6c1.2,16,1.6,30.7,2.9,46.8c-0.2,6.7-2.3,15.8-4.3,16.6c0,0-2.9,1.8-5-0.1c-1.5-0.6-7.4-9.8-7.4-9.8
					c-3-2.8-5-2-7.2,0c-5.9,5.7-8.5,16.4-12.6,23.7c-1.1,1.6-4,3.1-7.2-0.1C523.6,232.4,528.4,216.3,527.4,220.4"/>
				<path class="st2" d="M492,126.7c3.8,1.5,6.4,9.1,5.5,12.9c-0.8,4.6-2.7,9.7-4.2,9c-1.5-0.6,1.1-4.6-0.4-8.8
					c-0.9-2.8-6-7.7-5.5-9.2C486.4,127.6,489.7,126.1,492,126.7"/>
				<path class="st2" d="M539.5,225c0.8-9.1-0.5-14.8-0.8-20.2c-0.2-5.3-6.1-49.1-7.3-53.2c-1.4-7.7,5.7-1,4.9-5.5
					c-2.5-5.6-8.6-13.9-10.5-18.8c-1.2-2.1-0.7-4-3.3-0.5c-2.3,7.9-3.2,14.2-2.3,19.2c6.2,32.3,12.5,61.7,11.6,92.3
					C534.7,238.3,538.1,231.6,539.5,225"/>
				<path class="st2" d="M603.9,137.6c3.5,1.8,5.5,11.3,5.1,14.1c-0.7,5-2.5,10.4-3.8,9.7c-1.4-0.6,0.3-7.5-0.4-9.5
					c-0.8-3-5.5-8.4-5-10C598.9,138.5,601.9,137.1,603.9,137.6"/>
				<path class="st2" d="M348.4,207.6c3.2,1.2,5.2,8.3,4.8,10.3c-0.7,3.7-2.4,7.6-3.6,7.1c-1.4-0.5,0.3-5.5-0.4-7
					c-0.3-3.8-4.8-5.7-4.7-7.3C343.6,207.7,346.3,207.2,348.4,207.6"/>
				<path class="st2" d="M260.4,124.4c4.9,1.4,5.1,8.6,4.8,10.7c-0.7,3.8-2.4,7.9-3.7,7.4c-1.3-0.4,0-5.6-0.7-7.2
					c-0.7-2.3-4.8-6.3-4.3-7.6C255.6,125.1,258.4,123.9,260.4,124.4"/>
				<path class="st2" d="M356.3,158.1c-3.8,1.9-5.2,8-2.8,11.5c2.1,3,5.6,1.8,6,1.8c3.7,0.5,5.8-6.9,5.8-6.9s0.1-2-4.2,1.8
					c-1.8,0.4-2.1-0.3-2.5-1.3c-0.4-1.9-0.3-3.8,0.6-5.7C359.8,157.6,358.4,156.8,356.3,158.1"/>
				<path class="st2" d="M384.2,121.6c-1.8,1.2-5.6,5.1-5.7,9.6c-0.2,2.5-0.6,2.5,1,4.1c1.2,1.7,2.4,1.5,4.8,0.2
					c1.3-0.9,1.8-1.6,2.3-3.3c0.6-2.9-3,1.3-3.5-1.8c-0.8-3,1.5-4.1,3.7-7C386.9,121.4,386.9,120.1,384.2,121.6"/>
				<path class="st2" d="M406.8,125.6c-0.8,1.8-1.8,11.1-1.6,11.1c-0.7,2.8,2.9,4,4.5,0.4c2.4-6.5,2.4-9.3,2.5-12.1
					C411.5,120.8,408.6,121,406.8,125.6"/>
				<path class="st2" d="M548.6,197.8c0.5-0.4,20-14.3,20-14.3c2-0.7,1.5,7.2,0.7,7c0.4,1.6-19.2,14.9-20.7,14.4
					C547.7,205.6,546.7,199.6,548.6,197.8"/>
				<path class="st2" d="M566.4,197.7c3.5,1.7,4.8,11.7,4.4,14.5c0.1,5.3-3.3,9.6-4.6,9c-1.4-0.7,0.1-6.6-0.5-8.8
					c-0.8-3-3.8-8.5-3.2-10.1C561.5,199,564.3,197.1,566.4,197.7"/>
				<path class="st2" d="M450.4,241c1.3-1.9,5.5-4.8,5.6-4.8c2-1,3.9,0.7,3.8,0.7c0.3,1.8-1.2,3.7-0.7,6.2c0.4,1,0.7,2.3,2.6,1.7
					c3.1-2.5,6-2.7,9.1-2.7c2.4,0,2.5,4.1,1,4.1c-5.7,1.2-8.3,2.9-12.4,4.4c-1.9,1.1-3.6-0.3-3.6-0.5c0-0.1-1.1-1-0.4-3.6
					c0.2-2-0.7-3.2-2.4-3.1c-1.3,0.8-2.4,1.2-3.1-0.2C449.6,242.3,449.5,241.6,450.4,241"/>
				<path class="st2" d="M586.9,246.5c0.8,1.1,1.4,2-0.1,3.8c-1.4,1.3-2.3,1.9-3.7,3.3c-0.6,1.1-1,2.8,0.9,3.3
					c3.6,1,12.1-4.4,12.1-4.6c1.4-0.9,0.9-3,0.8-3c-0.8-0.9-2.6-0.4-3.8-0.4c-0.6,0-2.5-0.4-1.6-1.9c0.7-1.1,1-1.7,1.5-3
					c0.5-1.3,0.1-2.1-2-2.9c-2-0.4-2.9-0.1-5.2,0c-1.3,0.3-1.7,0.9-1.9,2.3C584.1,245.6,585.5,245.5,586.9,246.5"/>
			</g>
		</g>
	</g>
</g>
</svg>
